<svg version="1.2" baseProfile="tiny-ps" xmlns="http://www.w3.org/2000/svg" viewBox="0 0 101 101" width="101" height="101">
	<title>redditLogo-svg</title>
	<style>
		tspan { white-space:pre }
		.s0 { fill: #ff4500 } 
		.s1 { fill: #ffffff } 
	</style>
	<g id="Layer">
		<path id="Layer" class="s0" d="m49.96 94.91c-24.86 0-44.96-20.1-44.96-44.96c0-24.86 20.1-44.96 44.96-44.96c24.86 0 44.96 20.1 44.96 44.96c0 24.86-20.1 44.96-44.96 44.96z" />
		<path id="Layer" fill-rule="evenodd" class="s1" d="m79.95 49.96c0 2.68-1.61 4.99-3.86 6.01c0.11 0.64 0.16 1.34 0.16 1.98c0 10.14-11.75 18.29-26.23 18.29c-14.48 0-26.23-8.21-26.23-18.29c0-0.7 0.05-1.34 0.16-1.98c-2.25-1.02-3.86-3.27-3.86-5.96c0-3.59 2.9-6.54 6.55-6.54c0.42 0 0.84 0.04 1.25 0.12c0.41 0.08 0.82 0.2 1.21 0.35c0.39 0.16 0.76 0.35 1.12 0.58c0.35 0.23 0.68 0.49 0.99 0.78c4.56-3.27 10.84-5.36 17.81-5.58l3.33-15.67c0.05-0.32 0.21-0.59 0.48-0.75c0.22-0.16 0.54-0.22 0.86-0.16l10.89 2.31c0.75-1.56 2.36-2.63 4.19-2.63c2.57 0 4.67 2.09 4.67 4.67c0 2.58-2.09 4.67-4.67 4.67c-2.52 0-4.56-1.98-4.67-4.45l-9.76-2.09l-3 14.06c6.87 0.27 13.04 2.36 17.54 5.58c1.18-1.13 2.79-1.82 4.56-1.82c3.59 0 6.54 2.9 6.54 6.54zm-44.96 4.67c0 2.58 2.09 4.72 4.67 4.67c2.57 0 4.67-2.09 4.67-4.67c0-2.57-2.09-4.67-4.67-4.67c-2.58 0-4.67 2.09-4.67 4.67zm26.13 10.68c-0.48-0.48-1.23-0.48-1.72 0c-1.98 2.04-6.33 2.74-9.39 2.74c-3.06 0-7.35-0.7-9.39-2.74c-0.48-0.48-1.23-0.48-1.72 0c-0.48 0.48-0.48 1.23 0 1.72c3.17 3.16 9.28 3.43 11.11 3.43c1.77 0 7.89-0.22 11.11-3.43c0.43-0.48 0.43-1.23 0-1.72zm3.81-10.62c0-2.57-2.09-4.67-4.67-4.67c-2.57 0-4.67 2.09-4.67 4.67c0 2.58 2.09 4.67 4.67 4.67c2.58 0 4.67-2.15 4.67-4.67z" />
	</g>
</svg>